<svg preserveAspectRatio="none" overflow="visible" style="display: block;" width="28" height="28" viewBox="0 0 28 28" fill="none" xmlns="http://www.w3.org/2000/svg">
<g id="Bell">
<path id="Rectangle 1" d="M7.52248 9.29766C7.88922 5.99704 10.6791 3.5 14 3.5C17.3209 3.5 20.1108 5.99704 20.4775 9.29765L20.7713 11.9416C20.807 12.263 20.8249 12.4238 20.8489 12.582C20.9892 13.5064 21.2906 14.3991 21.7392 15.2195C21.816 15.3599 21.8992 15.4986 22.0656 15.7759L22.7399 16.8999C23.4925 18.1541 23.8687 18.7812 23.6349 19.267C23.6156 19.307 23.5937 19.3457 23.5693 19.3829C23.273 19.8333 22.5417 19.8333 21.0791 19.8333H6.92094C5.45832 19.8333 4.72701 19.8333 4.43071 19.3829C4.4063 19.3457 4.38439 19.307 4.36513 19.267C4.13129 18.7812 4.50755 18.1541 5.26006 16.8999L5.93443 15.7759C6.10083 15.4986 6.18404 15.3599 6.26083 15.2195C6.70945 14.3991 7.01077 13.5064 7.15111 12.582C7.17514 12.4238 7.193 12.263 7.22871 11.9416L7.52248 9.29766Z" stroke="#33363F" stroke-width="2"/>
<path id="Ellipse 45" d="M9.33333 19.8333C9.33333 20.4462 9.45404 21.053 9.68856 21.6192C9.92308 22.1854 10.2668 22.6998 10.7002 23.1332C11.1335 23.5665 11.648 23.9102 12.2141 24.1448C12.7803 24.3793 13.3872 24.5 14 24.5C14.6128 24.5 15.2197 24.3793 15.7859 24.1448C16.352 23.9102 16.8665 23.5665 17.2998 23.1332C17.7332 22.6998 18.0769 22.1854 18.3114 21.6192C18.546 21.053 18.6667 20.4462 18.6667 19.8333" stroke="#33363F" stroke-width="2" stroke-linecap="round"/>
</g>
</svg>
